<svg width="32" height="32" viewBox="0 0 32 32" fill="#0A0606" xmlns="http://www.w3.org/2000/svg">
<path fill-rule="evenodd" clip-rule="evenodd" d="M0 16C0 24.8366 7.16344 32 16 32C24.8366 32 32 24.8366 32 16C32 7.16344 24.8366 0 16 0C7.16344 0 0 7.16344 0 16ZM30 16C30 23.732 23.732 30 16 30C8.26801 30 2 23.732 2 16C2 8.26801 8.26801 2 16 2C23.732 2 30 8.26801 30 16ZM15 9C15 8.44771 15.4477 8 16 8C16.5523 8 17 8.44771 17 9V20C17 20.5523 16.5523 21 16 21C15.4477 21 15 20.5523 15 20V9ZM17 24C17 24.5523 16.5523 25 16 25C15.4477 25 15 24.5523 15 24C15 23.4477 15.4477 23 16 23C16.5523 23 17 23.4477 17 24Z" />
</svg>
