<svg width="14" height="14" viewBox="0 0 14 14" fill="#0A0606" xmlns="http://www.w3.org/2000/svg">
<path fill-rule="evenodd" clip-rule="evenodd" d="M0.292769 0.2979C-0.0976868 0.688493 -0.0975754 1.32166 0.293018 1.71211L5.5855 7.00242L0.293018 12.2927C-0.0975754 12.6832 -0.0976868 13.3163 0.292769 13.7069C0.683224 14.0975 1.31639 14.0976 1.70698 13.7072L7 8.41634L12.293 13.7072C12.6836 14.0976 13.3168 14.0975 13.7072 13.7069C14.0977 13.3163 14.0976 12.6832 13.707 12.2927L8.4145 7.00242L13.707 1.71211C14.0976 1.32166 14.0977 0.688493 13.7072 0.2979C13.3168 -0.0926925 12.6836 -0.0928039 12.293 0.297652L7 5.5885L1.70698 0.297652C1.31639 -0.0928039 0.683224 -0.0926925 0.292769 0.2979Z" />
</svg>
