<svg width="32" height="32" viewBox="0 0 32 32" fill="#0A0606" xmlns="http://www.w3.org/2000/svg">
<path fill-rule="evenodd" clip-rule="evenodd" d="M0 16C0 24.8366 7.16344 32 16 32C24.8366 32 32 24.8366 32 16C32 7.16344 24.8366 0 16 0C7.16344 0 0 7.16344 0 16ZM30 16C30 23.732 23.732 30 16 30C8.26801 30 2 23.732 2 16C2 8.26801 8.26801 2 16 2C23.732 2 30 8.26801 30 16ZM15 12C15 11.4477 15.4477 11 16 11C16.5523 11 17 11.4477 17 12V23C17 23.5523 16.5523 24 16 24C15.4477 24 15 23.5523 15 23V12ZM17 8C17 8.55229 16.5523 9 16 9C15.4477 9 15 8.55229 15 8C15 7.44772 15.4477 7 16 7C16.5523 7 17 7.44772 17 8Z" />
</svg>
