<svg width="32" height="32" viewBox="0 0 32 32" fill="#0A0606" xmlns="http://www.w3.org/2000/svg">
<path fill-rule="evenodd" clip-rule="evenodd" d="M0 16C0 24.8366 7.16344 32 16 32C24.8366 32 32 24.8366 32 16C32 7.16344 24.8366 0 16 0C7.16344 0 0 7.16344 0 16ZM30 16C30 23.732 23.732 30 16 30C8.26801 30 2 23.732 2 16C2 8.26801 8.26801 2 16 2C23.732 2 30 8.26801 30 16ZM9.29302 10.7072C8.90242 10.3168 8.90231 9.68361 9.29277 9.29302C9.68322 8.90242 10.3164 8.90231 10.707 9.29277L16 14.5836L21.293 9.29277C21.6836 8.90231 22.3168 8.90242 22.7072 9.29302C23.0977 9.68361 23.0976 10.3168 22.707 10.7072L17.4145 15.9975L22.707 21.2878C23.0976 21.6783 23.0977 22.3115 22.7072 22.7021C22.3168 23.0927 21.6836 23.0928 21.293 22.7023L16 17.4115L10.707 22.7023C10.3164 23.0928 9.68322 23.0927 9.29277 22.7021C8.90231 22.3115 8.90242 21.6783 9.29302 21.2878L14.5855 15.9975L9.29302 10.7072Z" />
</svg>
