<svg width="32" height="32" viewBox="0 0 32 32" fill="#0A0606" xmlns="http://www.w3.org/2000/svg">
<path fill-rule="evenodd" clip-rule="evenodd" d="M0 16C0 24.8366 7.16344 32 16 32C24.8366 32 32 24.8366 32 16C32 7.16344 24.8366 0 16 0C7.16344 0 0 7.16344 0 16ZM30 16C30 23.732 23.732 30 16 30C8.26801 30 2 23.732 2 16C2 8.26801 8.26801 2 16 2C23.732 2 30 8.26801 30 16ZM22.2929 11.2929C22.6834 10.9024 23.3166 10.9024 23.7071 11.2929C24.0976 11.6834 24.0976 12.3166 23.7071 12.7071L14.7074 21.7068C14.7073 21.7069 14.7072 21.707 14.7071 21.7071C14.3167 22.0975 13.6837 22.0976 13.2932 21.7074C13.2931 21.7073 13.293 21.7072 13.2929 21.7071L8.28945 16.7074C7.89879 16.317 7.89855 15.6838 8.28893 15.2932C8.67931 14.9025 9.31248 14.9023 9.70315 15.2926L13.9997 19.586L22.2929 11.2929Z" />
</svg>

